<svg version="1.0" xmlns="http://www.w3.org/2000/svg" width="682.667" height="682.667" viewBox="0 0 512 512">
  <path d="M88.2 65.5c-8.3 1.8-19.8 7.2-22.3 10.3-2.4 3.2-2.4 5.3.2 8.6s6 3.4 13 .1c22.3-10.1 46.5-6.3 64 10.2 3.8 3.6 6.9 6.8 6.9 7.2 0 .3-1.9 1.8-4.3 3.3-6.2 4.1-14.8 12.6-17.5 17.4-.7 1.3-2.1 1.7-5 1.6-6.3-.4-17.7 2.4-24.3 6-3.9 2-8.3 5.6-12.2 9.9l-6.1 6.7-5.1-.5c-6-.6-14.8 1.6-21.2 5.3-2.3 1.3-4.4 2.4-4.6 2.4-1.2 0-2.7-9.8-2.7-17.7.1-10.4 1.1-15.3 5.1-24.6 3.4-7.8 3.1-11.2-1.4-13.7-5.7-3.2-10.6 1.4-15.2 14.8-3.8 10.7-4.6 30.1-1.7 41.2 1.1 4.1 1.8 7.7 1.5 8-.2.3-7.4.7-16 1-14.8.5-15.6.6-17.4 2.9-2.5 3-2.4 6.2.2 9.5 2 2.6 2.1 2.6 16.3 2.6 19.2 0 28.2-2.5 40.6-11.5 6.1-4.4 11.1-5.9 17.4-5.1 8.4.9 11.7-.5 19-8.8 8.4-9.3 14.8-12.5 26.8-13.2 10.2-.6 14-2.4 18.7-8.8 10.8-14.6 25.7-21.5 43.1-20.1 4.7.4 8.6.2 10.4-.5 1.6-.6 6.2-4.2 10.2-8 8.3-7.9 14.4-11.3 24.1-13.6 12.4-2.9 24.9-.1 37.3 8.1 8.6 5.9 12.2 6.4 22 3.4 15.4-4.7 32.1-2.4 44.9 6.3 14.6 9.9 14.7 9.9 30.1 5.8 18.4-4.9 35.8 1.1 48.4 16.9 3.1 3.9 6.6 7.6 7.7 8.2 1.2.6 5.1 1.5 8.8 2 12 1.7 16 3.6 22.6 10.7 13.8 14.8 17.2 17.8 24.1 21.4 8.5 4.5 17.5 6.8 26.6 6.8 6 0 6.9-.3 8.7-2.6 2.6-3.3 2.7-6.5.3-9.4-1.5-1.9-3.3-2.4-10.3-3-14.4-1.4-24.3-6.5-32.2-16.8-10-12.9-19.9-19.2-34-21.4-6.4-1-8-1.6-9.4-3.7-6.2-9.5-18.3-18.4-30.8-22.7-10.9-3.7-25.5-4-36.2-.6l-7.2 2.2-5.2-3.9c-17.4-13.2-40.9-17.2-61.2-10.5l-4.9 1.6-4.3-3.1c-11.4-8.2-27.2-12.7-40.3-11.6-15.1 1.3-27 6.6-38.2 17.1l-6.7 6.4-6.4-.6c-3.5-.3-9-.2-12.1.4l-5.8.9-4.2-5.5c-7.9-10.1-21-19.2-34.3-23.8-9.9-3.3-28.1-4.3-38.3-1.9zM4.3 194c-4.5 1.8-5.5 7.2-2.2 11.4l2 2.6h176.4c169.8 0 176.4-.1 178.6-1.8 3.3-2.7 3-7.8-.5-10.9l-2.7-2.3-174.7.1c-98.1 0-175.7.4-176.9.9zm380.4 1.1c-3.4 2.6-3.7 7.9-.7 10.9 2 2 3.3 2 62.9 2h61l2-2.6c2.6-3.3 2.7-6.5.2-9.5l-1.9-2.4-60.4-.3c-60.1-.2-60.5-.2-63.1 1.9zM2 225.2c-3.2 3.5-2.4 7.9 2.3 12 .1.1 10.3.4 22.6.7l22.5.6-24.7 26.3C-.6 291.8-1.6 293.1 1 297.9c1.6 3 6.4 4.5 9.3 2.9 1.4-.7 15.4-15.1 31.3-32.1L70.3 238h16.4c9 0 16.3.3 16.3.6S92.1 257 78.9 278.9l-24.2 39.7-6.6-1.4c-16.6-3.4-35.6 3.8-45.3 17.2-3.4 4.8-3.6 7.9-.3 11.1 4.1 4.2 7 3.3 13.9-3.8 7.2-7.5 13.2-10.1 23.6-10.1 7.8 0 14.3 2.6 19.6 7.8 2 2 4.4 3.8 5.4 4.1 1 .3 5.3-.6 9.6-2.1 6.7-2.2 9-2.6 15.3-2.1 9.9.8 18.2 4.8 25 12.2 4.7 5.2 9.1 14.1 9.1 18.3 0 3.5 3 6.1 9.1 7.8 8.5 2.4 14.1 7 18 14.9 2.9 5.9 3.1 7.1 2.7 13.7-.5 8.2-2.4 12.6-7.7 18.1-7.2 7.6-9.1 8.2-31.4 8.5l-19.7.4 1.1-2.9c1.6-4.2 1.3-14.3-.4-18.6-2.4-5.7-6.3-10.2-11-12.7-3.2-1.7-5.1-3.7-7.2-7.7-4.9-9.4-15.8-16.3-25.7-16.3-3.4 0-4.8-.7-8.5-4.1-7.1-6.6-12.2-8.4-22.8-8.3-9.5.1-14.7 1.6-18.5 5.4-2.7 2.7-2.5 7.1.3 9.8 2.7 2.6 6.1 2.8 11 .7 8.2-3.4 15.7-1.1 23.2 7l5 5.3 6.5-.4c10.2-.8 14.1 2.2 19.4 14.8 1.2 3 2.3 3.9 5.4 4.7 9.5 2.6 12.6 13.6 5.6 20.2l-2.6 2.4-36 .5-36 .5-1.9 2.4c-2.5 3-2.4 6.2.2 9.5l2 2.6h503.8l2-2.6c2.6-3.3 2.7-6.5.2-9.5l-1.9-2.4-32.4-.5c-35.7-.6-35.5-.5-39.7-7.4-2.7-4.5-3.3-8.1-2.1-12.6 2.2-8.4 10.2-13.7 18.6-12.4 5.9.9 8.7-1.1 10.9-7.7 3.4-10.2 11.2-15.8 21.9-15.9 5 0 7 .6 12.4 3.6 6.3 3.6 6.5 3.6 9.8 2.1 6.4-3.1 5.6-9.4-1.7-14.7-9.5-6.8-26.2-8-37.2-2.6-6 2.9-16.3 13-17.3 17-.5 2-1.4 2.5-5.2 3.1-10.6 1.4-21.1 9.4-25.4 19.3-2.9 6.6-2.9 17 0 23.5l2.1 4.8-22.7-.3c-25.5-.3-27-.7-34.3-8.5-5.3-5.5-7.2-9.9-7.7-18.1-.4-6.6-.2-7.8 2.7-13.7 3.9-7.9 9.5-12.5 18-14.9 6.1-1.7 9.1-4.3 9.1-7.8 0-4.2 4.4-13.1 9.1-18.3 6.8-7.4 15.1-11.4 25-12.2 6.3-.5 8.6-.1 15.3 2.1 4.3 1.5 8.6 2.4 9.6 2.1 1-.3 3.4-2.1 5.4-4.1 5.3-5.2 11.8-7.8 19.6-7.8 10.3 0 16.3 2.6 23.7 10.1 7 7.1 9.8 7.9 13.8 3.8 3.3-3.2 3.1-6.3-.3-11.1-9.7-13.4-28.7-20.6-45.3-17.2l-6.6 1.4-24.2-39.7c-13.2-21.9-24.1-40-24.1-40.3 0-.3 7.3-.6 16.3-.6h16.4l28.7 30.7c15.9 17 29.9 31.4 31.3 32.1 2.9 1.6 7.7.1 9.3-2.9 2.6-4.8 1.6-6.1-23.7-33.1l-24.7-26.3 22.5-.6c12.3-.3 22.5-.6 22.6-.7 2.6-2.2 4.3-5.1 4.3-7.2 0-1.4-.9-3.6-2-4.8l-2.1-2.2H4.1L2 225.2zm154 13.1c0 .1-2.5 7.7-5.5 16.7s-5.5 17.9-5.5 19.7c0 6.2 7.6 9.7 11.9 5.4 1-1 4.9-10.9 8.6-22l6.7-20.1h45.9l-.6 3.2c-.3 1.8-4.1 36.6-8.5 77.3-4.4 40.7-8.3 75.1-8.6 76.5-.5 2.2-.7 2.1-2.4-1.7-2.6-5.8-8.5-12-14.4-15.1-4.5-2.4-6.2-2.7-15.1-2.7h-10.1l-4.5-3.7c-2.5-2.1-7.1-4.9-10.3-6.4-3.2-1.4-6-3.4-6.3-4.3-.2-.9-1.1-3.2-1.9-5.1-1.4-3.4-1.2-4.2 6-25.8 4.1-12.2 7.2-23.2 6.9-24.3-.7-2.4-5-5.9-7.4-5.9-4.1 0-6.6 4.3-11.9 20.5-2.9 8.8-5.4 16.3-5.7 16.7-.2.4-2.7-1-5.6-3.2-11-8.4-28.2-11.9-42.1-8.6-3.8.9-7.1 1.4-7.4 1.2-.2-.3 11.6-20.3 26.3-44.6l26.7-44h17.4c9.6 0 17.4.1 17.4.3zm123.4 3.4c.3 2.1 2.6 22.7 5.1 45.8 2.6 23.1 5.1 43.2 5.6 44.7 1.4 3.4 5.6 5.2 9.2 3.9 5.4-2.1 5.4-2.5.3-49.4-2.6-23.7-4.9-44.4-5.2-46l-.6-2.7h46l19.2 57.4c18.7 56.3 19.1 57.4 17.6 60.7-.8 1.9-1.7 4.1-1.9 5-.3.9-3.5 3-7.1 4.7-12.5 5.9-22.6 19.1-24.2 31.8l-.6 5.4h-30.5l-2.2-20.8c-1.3-12-2.8-21.6-3.6-22.8-1.7-2.7-5.6-3.7-8.9-2.4-4.8 1.8-5 4.1-2.7 24.6 1.2 10.4 2.1 19.5 2.1 20.1 0 1-8.9 1.3-41 1.3-31.8 0-41-.3-41-1.2 0-1.9 16.9-155.7 17.6-160.1l.6-3.7h45.6l.6 3.7zM417.5 282c14.7 24.3 26.5 44.3 26.3 44.6-.3.2-3.4-.2-6.9-1.1-15-3.5-31.1-.3-42.7 8.5l-5.2 4-1-2.4c-.5-1.3-7.7-23.2-16.1-48.7-8.3-25.5-15.4-47-15.6-47.7-.4-.9 3.4-1.2 17-1.2h17.5l26.7 44zM179.4 393.4c2.4 1.8 4.2 4.4 5.6 8.5 1.6 4.2 2.9 6.2 4.8 7.1 1.5.7 4.1 1.9 5.9 2.7 3.1 1.5 6.3 6.4 6.3 9.8 0 3.2-3.3 8.6-6.1 10-2.1 1.2-6.9 1.5-19.8 1.5h-17l2.8-4.3c5.2-7.6 7.4-16 6.8-25.7-.3-4.7-.9-9.6-1.3-10.9-.7-2.3-.6-2.4 3.9-1.9 2.9.4 6 1.6 8.1 3.2zm166.5 27.7c.6 1.6 2.4 5 4 7.5l3 4.4h-69.5c-67.9 0-69.4 0-68.5-1.9.6-1 1.4-4.4 1.7-7.5l.7-5.6h127.5l1.1 3.1z"/>
</svg>
